<svg width="19" height="16" viewBox="0 0 19 16" fill="none" xmlns="http://www.w3.org/2000/svg">
<path d="M13.667 5.49888C14.1878 6.18221 14.5003 7.05138 14.5003 7.99888C14.5003 8.94638 14.1878 9.81555 13.667 10.4989M16.167 3.83221C17.2086 4.97055 17.8336 6.42055 17.8336 7.99888C17.8336 9.57721 17.2086 11.0272 16.167 12.1655M11.167 10.3439V5.65388C11.167 3.03304 11.167 1.72305 10.3961 1.39638C9.62445 1.07055 8.71695 1.99638 6.90195 3.85054C5.96195 4.81054 5.42612 5.02305 4.08862 5.02305C2.91945 5.02305 2.33445 5.02304 1.91362 5.30971C1.04195 5.90471 1.17529 7.06721 1.17529 7.99888C1.17529 8.93055 1.04279 10.093 1.91529 10.688C2.33529 10.9747 2.92029 10.9747 4.08945 10.9747C5.42695 10.9747 5.96279 11.1872 6.90279 12.1472C8.71779 14.0005 9.62529 14.9272 10.397 14.6014C11.1678 14.2747 11.167 12.9655 11.167 10.3439Z" stroke="#070D17" stroke-width="0.75" stroke-linecap="round" stroke-linejoin="round"/>
</svg>
