<svg width="17" height="18" viewBox="0 0 17 18" fill="none" xmlns="http://www.w3.org/2000/svg">
<path d="M15.125 2.125H8.875V0.875C8.875 0.70924 8.80915 0.550268 8.69194 0.433058C8.57473 0.315848 8.41576 0.25 8.25 0.25C8.08424 0.25 7.92527 0.315848 7.80806 0.433058C7.69085 0.550268 7.625 0.70924 7.625 0.875V2.125H1.375C1.04348 2.125 0.725537 2.2567 0.491116 2.49112C0.256696 2.72554 0.125 3.04348 0.125 3.375V12.75C0.125 13.0815 0.256696 13.3995 0.491116 13.6339C0.725537 13.8683 1.04348 14 1.375 14H4.45L2.76172 16.1094C2.65812 16.2389 2.61021 16.4042 2.62852 16.5691C2.64683 16.7339 2.72987 16.8847 2.85938 16.9883C2.98888 17.0919 3.15423 17.1398 3.31905 17.1215C3.48388 17.1032 3.63468 17.0201 3.73828 16.8906L6.05 14H10.45L12.7617 16.8906C12.813 16.9547 12.8764 17.0081 12.9484 17.0477C13.0203 17.0874 13.0993 17.1124 13.1809 17.1215C13.2626 17.1305 13.3452 17.1235 13.424 17.1006C13.5029 17.0777 13.5765 17.0396 13.6406 16.9883C13.7047 16.937 13.7581 16.8736 13.7977 16.8016C13.8374 16.7297 13.8624 16.6507 13.8715 16.5691C13.8805 16.4874 13.8735 16.4048 13.8506 16.326C13.8277 16.2471 13.7896 16.1735 13.7383 16.1094L12.05 14H15.125C15.4565 14 15.7745 13.8683 16.0089 13.6339C16.2433 13.3995 16.375 13.0815 16.375 12.75V3.375C16.375 3.04348 16.2433 2.72554 16.0089 2.49112C15.7745 2.2567 15.4565 2.125 15.125 2.125ZM15.125 12.75H1.375V3.375H15.125V12.75Z" fill="#1B1E2B"/>
</svg>
