<svg width="16" height="12" viewBox="0 0 16 12" fill="none" xmlns="http://www.w3.org/2000/svg">
<path d="M10.2558 0.695813L14.97 5.40998C15.1262 5.56625 15.214 5.77818 15.214 5.99915C15.214 6.22012 15.1262 6.43204 14.97 6.58831L10.2558 11.3025C10.0987 11.4543 9.88816 11.5383 9.66967 11.5364C9.45117 11.5345 9.24216 11.4468 9.08765 11.2923C8.93314 11.1378 8.8455 10.9288 8.84361 10.7103C8.84171 10.4918 8.9257 10.2813 9.0775 10.1241L12.3692 6.83248H1.33333C1.11232 6.83248 0.900358 6.74468 0.744078 6.5884C0.587797 6.43212 0.5 6.22016 0.5 5.99915C0.5 5.77813 0.587797 5.56617 0.744078 5.40989C0.900358 5.25361 1.11232 5.16581 1.33333 5.16581H12.3692L9.0775 1.87415C8.99791 1.79727 8.93442 1.70532 8.89075 1.60365C8.84707 1.50198 8.82409 1.39263 8.82312 1.28198C8.82216 1.17133 8.84325 1.0616 8.88515 0.959185C8.92705 0.856771 8.98893 0.763728 9.06717 0.685484C9.14541 0.60724 9.23846 0.545363 9.34087 0.503462C9.44328 0.461561 9.55302 0.440476 9.66367 0.441438C9.77432 0.442399 9.88367 0.465388 9.98534 0.509062C10.087 0.552736 10.179 0.616221 10.2558 0.695813Z" fill="#262B3A"/>
</svg>
