<svg width="21" height="20" viewBox="0 0 21 20" fill="none" xmlns="http://www.w3.org/2000/svg">
<path d="M7.7513 8.4738C7.7513 8.4738 8.3763 8.4738 9.0013 9.58464C9.0013 9.58464 10.9863 6.80714 12.7513 6.2513M14.3205 12.5013L14.8788 15.1763C15.2371 16.8946 15.4171 17.7538 15.048 18.1613C14.6796 18.5688 14.0396 18.2188 12.7596 17.518L10.8646 16.4805C10.5621 16.3155 10.4113 16.2321 10.2513 16.2321C10.0913 16.2321 9.94047 16.3155 9.63797 16.4805L7.74297 17.518C6.46297 18.218 5.82297 18.5688 5.45464 18.1613C5.0863 17.7538 5.26547 16.8946 5.6238 15.1763L6.18214 12.5013M8.1063 2.5538C9.15464 1.96297 9.67797 1.66797 10.2513 1.66797C10.8246 1.66797 11.348 1.96297 12.3963 2.5538L13.8546 3.37547C14.9421 3.98797 15.4863 4.29464 15.7855 4.80714C16.0846 5.31964 16.0846 5.94464 16.0846 7.19464V8.6413C16.0846 9.8913 16.0846 10.5163 15.7846 11.0288C15.4863 11.5413 14.943 11.848 13.8546 12.4605L12.3963 13.2821C11.348 13.873 10.8246 14.168 10.2513 14.168C9.67797 14.168 9.15464 13.873 8.1063 13.2821L6.64797 12.4605C5.56047 11.848 5.0163 11.5413 4.71714 11.0288C4.41797 10.5163 4.41797 9.8913 4.41797 8.6413V7.19464C4.41797 5.94464 4.41797 5.31964 4.71797 4.80714C5.0163 4.29464 5.55964 3.98797 6.64797 3.37547L8.1063 2.5538Z" stroke="#252A39" stroke-linecap="round" stroke-linejoin="round"/>
</svg>
