<svg width="17" height="18" viewBox="0 0 17 18" fill="none" xmlns="http://www.w3.org/2000/svg">
<path d="M15.5846 9.0013C15.5846 9.73794 15.292 10.4444 14.7711 10.9653C14.2502 11.4862 13.5438 11.7788 12.8071 11.7788C12.2521 11.7788 11.598 11.6821 11.0588 11.8263C10.8233 11.8896 10.6086 12.0137 10.4362 12.1862C10.2637 12.3586 10.1396 12.5733 10.0763 12.8088C9.93214 13.348 10.0288 14.0021 10.0288 14.5571C10.0288 14.9219 9.95696 15.2831 9.81738 15.62C9.6778 15.957 9.47321 16.2632 9.21529 16.5211C8.95738 16.779 8.65119 16.9836 8.31421 17.1232C7.97722 17.2628 7.61605 17.3346 7.2513 17.3346M5.16797 4.83464H11.0013M5.16797 8.16797H7.66797M1.41797 7.33464C1.41797 4.19214 1.41797 2.62047 2.45547 1.64464C3.49297 0.668802 5.16214 0.667969 8.5013 0.667969H9.14547C11.8621 0.667969 13.2221 0.667969 14.1655 1.33297C14.4355 1.52297 14.6755 1.74964 14.878 2.0038C15.5846 2.89214 15.5846 4.17047 15.5846 6.7288V8.84964C15.5846 11.3188 15.5846 12.5538 15.1938 13.5396C14.5655 15.1255 13.2371 16.3755 11.5521 16.9671C10.5046 17.3346 9.1938 17.3346 6.5688 17.3346C5.07047 17.3346 4.32047 17.3346 3.72214 17.1246C2.75964 16.7863 2.00047 16.0721 1.6413 15.1663C1.41797 14.603 1.41797 13.8971 1.41797 12.4863V7.33464Z" stroke="#252A39" stroke-linecap="round" stroke-linejoin="round"/>
</svg>
