<svg width="14" height="10" viewBox="0 0 14 10" fill="none" xmlns="http://www.w3.org/2000/svg">
<path d="M0.125 0.832031C0.125 0.666271 0.190848 0.5073 0.308058 0.390089C0.425268 0.272879 0.58424 0.207031 0.75 0.207031H13.25C13.4158 0.207031 13.5747 0.272879 13.6919 0.390089C13.8092 0.5073 13.875 0.666271 13.875 0.832031C13.875 0.997792 13.8092 1.15676 13.6919 1.27397C13.5747 1.39118 13.4158 1.45703 13.25 1.45703H0.75C0.58424 1.45703 0.425268 1.39118 0.308058 1.27397C0.190848 1.15676 0.125 0.997792 0.125 0.832031ZM2.20833 4.9987C2.20833 4.83294 2.27418 4.67397 2.39139 4.55676C2.5086 4.43955 2.66757 4.3737 2.83333 4.3737H11.1667C11.3324 4.3737 11.4914 4.43955 11.6086 4.55676C11.7258 4.67397 11.7917 4.83294 11.7917 4.9987C11.7917 5.16446 11.7258 5.32343 11.6086 5.44064C11.4914 5.55785 11.3324 5.6237 11.1667 5.6237H2.83333C2.66757 5.6237 2.5086 5.55785 2.39139 5.44064C2.27418 5.32343 2.20833 5.16446 2.20833 4.9987ZM4.70833 9.16536C4.70833 8.9996 4.77418 8.84063 4.89139 8.72342C5.0086 8.60621 5.16757 8.54036 5.33333 8.54036H8.66667C8.83243 8.54036 8.9914 8.60621 9.10861 8.72342C9.22582 8.84063 9.29167 8.9996 9.29167 9.16536C9.29167 9.33112 9.22582 9.4901 9.10861 9.60731C8.9914 9.72452 8.83243 9.79036 8.66667 9.79036H5.33333C5.16757 9.79036 5.0086 9.72452 4.89139 9.60731C4.77418 9.4901 4.70833 9.33112 4.70833 9.16536Z" fill="#1B1E2B"/>
</svg>
