<svg width="14" height="22" viewBox="0 0 14 22" fill="none" xmlns="http://www.w3.org/2000/svg">
<path d="M6.92604 9.97005C6.92604 10.771 7.43904 12.066 8.53504 12.97C10.182 14.331 11.006 15.011 11.171 15.262C11.359 15.55 11.32 15.465 11.419 15.798C11.505 16.088 11.505 16.505 11.505 17.338V17.418C11.505 17.615 11.505 17.713 11.522 17.806C11.5474 17.9434 11.5977 18.0694 11.673 18.184C11.724 18.262 11.791 18.331 11.925 18.47C12.584 19.152 12.913 19.493 12.975 19.776C13.066 20.189 12.898 20.617 12.556 20.845C12.322 21 11.859 21 10.932 21H3.54404C2.58304 21 2.10204 21 1.86304 20.834C1.70035 20.7186 1.57508 20.558 1.50273 20.3721C1.43039 20.1861 1.41416 19.9831 1.45604 19.788C1.51604 19.495 1.86004 19.143 2.54804 18.439C2.68804 18.297 2.75704 18.225 2.81004 18.144C2.88338 18.0314 2.93304 17.908 2.95904 17.774C2.97704 17.677 2.97704 17.576 2.97704 17.372V14.716C2.97704 14.004 2.99704 14.036 2.51304 13.378C-0.299956 9.55105 1.17304 5.83405 3.96404 4.39705C3.96404 2.65205 4.91304 1.71305 5.82404 1.24505C6.24604 1.02905 6.45704 0.920049 6.69104 1.06805C7.24104 1.41305 7.20804 3.00005 6.92604 4.00005C8.13404 4.00005 9.11804 5.00005 9.11804 6.00005L10.988 7.88905C11.333 8.29905 11.674 8.72905 11.413 9.30105C11.245 9.67005 10.843 9.99405 10.552 10.264C10.3718 10.4326 10.1343 10.5263 9.88754 10.5263C9.6408 10.5263 9.40328 10.4326 9.22304 10.264C8.88104 9.94705 8.62904 9.68205 8.13404 9.77905C7.73104 9.85705 7.34004 9.99305 6.92604 9.97005ZM6.92604 9.97005C6.37104 9.94005 5.71604 9.68405 5.02104 9.00105M3.00004 18H11" stroke="white" stroke-width="2" stroke-linecap="round" stroke-linejoin="round"/>
</svg>
