<svg width="16" height="18" viewBox="0 0 16 18" fill="none" xmlns="http://www.w3.org/2000/svg">
<path d="M2.28454 10.668C1.65926 9.64399 1.32959 8.46693 1.33204 7.26714C1.33204 3.62214 4.31704 0.667969 7.99871 0.667969C11.6804 0.667969 14.6654 3.62214 14.6654 7.26714C14.6678 8.46693 14.3382 9.64399 13.7129 10.668M10.4987 14.8346L10.3904 15.3738C10.2737 15.963 10.2145 16.2571 10.082 16.4905C9.87787 16.8501 9.54729 17.121 9.15454 17.2505C8.90038 17.3346 8.59871 17.3346 7.99871 17.3346C7.39871 17.3346 7.09704 17.3346 6.84288 17.2513C6.44999 17.1216 6.11939 16.8504 5.91538 16.4905C5.78288 16.2571 5.72371 15.963 5.60704 15.3738L5.49871 14.8346M7.99871 12.3346V8.16797M4.15121 13.2496C4.07454 13.0196 4.03621 12.9038 4.04038 12.8105C4.04509 12.714 4.07767 12.6209 4.13416 12.5425C4.19066 12.4641 4.26865 12.4038 4.35871 12.3688C4.44538 12.3346 4.56704 12.3346 4.80871 12.3346H11.1887C11.4312 12.3346 11.552 12.3346 11.6387 12.368C11.7289 12.403 11.807 12.4635 11.8635 12.542C11.92 12.6206 11.9525 12.7138 11.957 12.8105C11.9612 12.9038 11.9229 13.0188 11.8462 13.2496C11.7045 13.6755 11.6337 13.8888 11.5245 14.0613C11.2962 14.4218 10.9383 14.681 10.5245 14.7855C10.3262 14.8346 10.1029 14.8346 9.65538 14.8346H6.34204C5.89454 14.8346 5.67038 14.8346 5.47288 14.7846C5.05926 14.6804 4.70137 14.4215 4.47288 14.0613C4.36371 13.8888 4.29288 13.6755 4.15121 13.2496Z" stroke="#64BA9F" stroke-width="0.75" stroke-linecap="round" stroke-linejoin="round"/>
</svg>
