<svg width="21" height="20" viewBox="0 0 21 20" fill="none" xmlns="http://www.w3.org/2000/svg">
<path d="M7.83441 12.0824H13.6677M7.83441 7.91572H10.7511M12.5594 17.4074C16.0461 17.1765 18.8227 14.3599 19.0511 10.8241C19.0952 10.1324 19.0952 9.41572 19.0511 8.72405C18.8227 5.18905 16.0461 2.37405 12.5594 2.14155C11.3552 2.06219 10.147 2.06219 8.94274 2.14155C5.45608 2.37322 2.67941 5.18905 2.45108 8.72488C2.40693 9.42419 2.40693 10.1256 2.45108 10.8249C2.53441 12.1124 3.10358 13.3049 3.77441 14.3116C4.16358 15.0157 3.90691 15.8949 3.50108 16.664C3.20941 17.2182 3.06274 17.4949 3.18024 17.6949C3.29691 17.8949 3.55941 17.9015 4.08358 17.914C5.12108 17.939 5.82024 17.6457 6.37524 17.2365C6.68941 17.004 6.84691 16.8882 6.95524 16.8749C7.06358 16.8615 7.27774 16.9499 7.70441 17.1249C8.08774 17.2832 8.53358 17.3807 8.94191 17.4082C10.1294 17.4866 11.3694 17.4857 12.5594 17.4074Z" stroke="#252A39" stroke-linecap="round" stroke-linejoin="round"/>
</svg>
