<svg width="10" height="16" viewBox="0 0 10 16" fill="none" xmlns="http://www.w3.org/2000/svg">
<path d="M8.5745 9.90926L4.9995 13.4926L1.4245 9.90926C1.26758 9.75234 1.05475 9.66418 0.832837 9.66418C0.610919 9.66418 0.39809 9.75234 0.24117 9.90926C0.0842504 10.0662 -0.00390625 10.279 -0.00390625 10.5009C-0.00390625 10.7228 0.0842504 10.9357 0.24117 11.0926L4.40784 15.2593C4.48531 15.3374 4.57747 15.3994 4.67902 15.4417C4.78057 15.484 4.88949 15.5058 4.9995 15.5058C5.10951 15.5058 5.21843 15.484 5.31998 15.4417C5.42153 15.3994 5.5137 15.3374 5.59117 15.2593L9.75783 11.0926C9.83553 11.0149 9.89717 10.9227 9.93922 10.8211C9.98127 10.7196 10.0029 10.6108 10.0029 10.5009C10.0029 10.391 9.98127 10.2822 9.93922 10.1807C9.89717 10.0792 9.83553 9.98696 9.75783 9.90926C9.68014 9.83156 9.58789 9.76993 9.48638 9.72788C9.38486 9.68583 9.27605 9.66418 9.16617 9.66418C9.05629 9.66418 8.94748 9.68583 8.84596 9.72788C8.74444 9.76993 8.6522 9.83156 8.5745 9.90926ZM1.4245 6.09259L4.9995 2.50926L8.5745 6.09259C8.65197 6.1707 8.74414 6.23269 8.84569 6.275C8.94724 6.31731 9.05616 6.33909 9.16617 6.33909C9.27618 6.33909 9.3851 6.31731 9.48665 6.275C9.5882 6.23269 9.68037 6.1707 9.75783 6.09259C9.83594 6.01512 9.89794 5.92296 9.94025 5.82141C9.98255 5.71986 10.0043 5.61094 10.0043 5.50093C10.0043 5.39092 9.98255 5.28199 9.94025 5.18045C9.89794 5.0789 9.83594 4.98673 9.75783 4.90926L5.59117 0.742592C5.5137 0.664485 5.42153 0.60249 5.31998 0.560183C5.21843 0.517876 5.10951 0.496094 4.9995 0.496094C4.88949 0.496094 4.78057 0.517876 4.67902 0.560183C4.57747 0.60249 4.48531 0.664485 4.40784 0.742592L0.24117 4.90926C0.163471 4.98696 0.101838 5.0792 0.0597873 5.18072C0.017737 5.28224 -0.00390625 5.39104 -0.00390625 5.50093C-0.00390625 5.72284 0.0842504 5.93567 0.24117 6.09259C0.39809 6.24951 0.610919 6.33767 0.832837 6.33767C1.05475 6.33767 1.26758 6.24951 1.4245 6.09259Z" fill="#1B1E2B"/>
</svg>
