<svg width="18" height="18" viewBox="0 0 18 18" fill="none" xmlns="http://www.w3.org/2000/svg">
<path d="M7.33203 6.08203C7.33203 5.75051 7.20034 5.43257 6.96591 5.19815C6.73149 4.96373 6.41355 4.83203 6.08203 4.83203C5.75051 4.83203 5.43257 4.96373 5.19815 5.19815C4.96373 5.43257 4.83203 5.75051 4.83203 6.08203C4.83203 6.41355 4.96373 6.73149 5.19815 6.96591C5.43257 7.20034 5.75051 7.33203 6.08203 7.33203C6.41355 7.33203 6.73149 7.20034 6.96591 6.96591C7.20034 6.73149 7.33203 6.41355 7.33203 6.08203ZM7.33203 6.08203H13.1654M10.6654 11.9154C10.6654 11.5838 10.7971 11.2659 11.0315 11.0315C11.2659 10.7971 11.5838 10.6654 11.9154 10.6654C12.2469 10.6654 12.5648 10.7971 12.7992 11.0315C13.0337 11.2659 13.1654 11.5838 13.1654 11.9154C13.1654 12.2469 13.0337 12.5648 12.7992 12.7992C12.5648 13.0337 12.2469 13.1654 11.9154 13.1654C11.5838 13.1654 11.2659 13.0337 11.0315 12.7992C10.7971 12.5648 10.6654 12.2469 10.6654 11.9154ZM10.6654 11.9154H4.83203M1.08203 8.9987C1.08203 5.26703 1.08203 3.40036 2.2412 2.2412C3.40036 1.08203 5.2662 1.08203 8.9987 1.08203C12.7304 1.08203 14.597 1.08203 15.7562 2.2412C16.9154 3.40036 16.9154 5.2662 16.9154 8.9987C16.9154 12.7304 16.9154 14.597 15.7562 15.7562C14.597 16.9154 12.7312 16.9154 8.9987 16.9154C5.26703 16.9154 3.40036 16.9154 2.2412 15.7562C1.08203 14.597 1.08203 12.7312 1.08203 8.9987Z" stroke="white" stroke-width="0.75" stroke-linecap="round" stroke-linejoin="round"/>
</svg>
