<svg width="15" height="22" viewBox="0 0 15 22" fill="none" xmlns="http://www.w3.org/2000/svg">
<path d="M7.50036 11.9998V16.9998M1.50036 20.9998H13.5004M3.50036 19.9998C3.50036 18.5858 3.50036 17.8788 3.94036 17.4398C4.37836 16.9998 5.08536 16.9998 6.50036 16.9998H8.50036C9.91436 16.9998 10.6214 16.9998 11.0604 17.4398C11.5004 17.8788 11.5004 18.5858 11.5004 19.9998V20.9998H3.50036V19.9998ZM8.53736 1.86675L9.59236 3.99575C9.73636 4.29175 10.1204 4.57575 10.4444 4.63075L12.3584 4.95075C13.5824 5.15675 13.8704 6.05175 12.9884 6.93575L11.5004 8.43575C11.2484 8.68975 11.1104 9.17975 11.1884 9.53075L11.6144 11.3868C11.9504 12.8568 11.1764 13.4257 9.88636 12.6567L8.09336 11.5868C7.76936 11.3928 7.23536 11.3928 6.90536 11.5868L5.11136 12.6567C3.82736 13.4257 3.04736 12.8508 3.38336 11.3868L3.80936 9.52975C3.88736 9.17975 3.74936 8.68975 3.49736 8.43575L2.00936 6.93575C1.13336 6.05175 1.41536 5.15675 2.63936 4.95075L4.55336 4.63075C4.87136 4.57575 5.25536 4.29175 5.39936 3.99575L6.45536 1.86575C7.03136 0.71075 7.96736 0.71175 8.53736 1.86675Z" stroke="white" stroke-width="2" stroke-linecap="round" stroke-linejoin="round"/>
</svg>
