<svg width="18" height="18" viewBox="0 0 18 18" fill="none" xmlns="http://www.w3.org/2000/svg">
<path d="M13.168 9.0013C13.168 9.82539 12.9236 10.631 12.4658 11.3162C12.0079 12.0014 11.3572 12.5354 10.5958 12.8508C9.83446 13.1662 8.99668 13.2487 8.18843 13.0879C7.38017 12.9271 6.63774 12.5303 6.05502 11.9476C5.47231 11.3649 5.07547 10.6224 4.9147 9.81418C4.75393 9.00592 4.83644 8.16815 5.1518 7.40679C5.46717 6.64543 6.00122 5.99468 6.68643 5.53685C7.37163 5.07901 8.17721 4.83464 9.0013 4.83464M10.668 0.834635C10.1291 0.724635 9.57352 0.66908 9.0013 0.667969C4.3988 0.667969 0.667969 4.3988 0.667969 9.0013C0.667969 13.6038 4.3988 17.3346 9.0013 17.3346C13.6038 17.3346 17.3346 13.6038 17.3346 9.0013C17.3335 8.42908 17.278 7.87352 17.168 7.33464M9.0263 8.96964L12.8205 5.17547M15.4513 2.62214L14.9905 0.965469C14.972 0.902356 14.9383 0.844758 14.8924 0.797772C14.8464 0.750785 14.7895 0.71586 14.7268 0.696085C14.6641 0.67631 14.5975 0.672296 14.5329 0.684398C14.4682 0.6965 14.4076 0.724345 14.3563 0.765469C13.1596 1.74297 11.8563 3.06047 12.9205 5.13797C15.0655 6.13797 16.2905 4.78964 17.2288 3.65547C17.2712 3.60323 17.3 3.54124 17.3125 3.47509C17.3249 3.40895 17.3207 3.34074 17.3002 3.27663C17.2797 3.21253 17.2435 3.15454 17.195 3.10793C17.1464 3.06131 17.087 3.02753 17.0221 3.00964L15.4513 2.62214Z" stroke="#252A39" stroke-width="0.75" stroke-linecap="round" stroke-linejoin="round"/>
</svg>
