<svg width="14" height="8" viewBox="0 0 14 8" fill="none" xmlns="http://www.w3.org/2000/svg">
<path d="M8.75082 1C8.75082 0.801088 8.82984 0.610323 8.97049 0.46967C9.11115 0.329018 9.30191 0.25 9.50082 0.25H13.0008C13.1997 0.25 13.3905 0.329018 13.5312 0.46967C13.6718 0.610323 13.7508 0.801088 13.7508 1V4.5C13.7508 4.69891 13.6718 4.88968 13.5312 5.03033C13.3905 5.17098 13.1997 5.25 13.0008 5.25C12.8019 5.25 12.6111 5.17098 12.4705 5.03033C12.3298 4.88968 12.2508 4.69891 12.2508 4.5V2.81L7.53082 7.53C7.3902 7.67045 7.19957 7.74934 7.00082 7.74934C6.80207 7.74934 6.61145 7.67045 6.47082 7.53L4.00082 5.06L1.53082 7.53C1.38865 7.66248 1.2006 7.7346 1.0063 7.73118C0.811999 7.72775 0.626614 7.64903 0.489201 7.51162C0.351788 7.37421 0.273076 7.18882 0.269648 6.99452C0.26622 6.80022 0.338343 6.61217 0.470823 6.47L3.47082 3.47C3.61145 3.32955 3.80207 3.25066 4.00082 3.25066C4.19957 3.25066 4.3902 3.32955 4.53082 3.47L7.00082 5.94L11.1908 1.75H9.50082C9.30191 1.75 9.11115 1.67098 8.97049 1.53033C8.82984 1.38968 8.75082 1.19891 8.75082 1Z" fill="#07A042"/>
</svg>
