<svg width="16" height="16" viewBox="0 0 16 16" fill="none" xmlns="http://www.w3.org/2000/svg">
<path d="M12.6607 12.6654H12.6673H12.6607ZM12.6607 12.6654C12.246 13.0767 11.494 12.9747 10.966 12.9747C10.318 12.9747 10.006 13.1014 9.54398 13.5634C9.15065 13.9567 8.62332 14.6654 8.00065 14.6654C7.37798 14.6654 6.85065 13.9567 6.45732 13.5634C5.99465 13.1014 5.68265 12.9747 5.03532 12.9747C4.50798 12.9747 3.75532 13.0774 3.33998 12.6654C2.92198 12.2507 3.02465 11.4947 3.02465 10.964C3.02465 10.2927 2.87798 9.98403 2.39998 9.5067C1.68932 8.79603 1.33398 8.44003 1.33398 7.9987C1.33398 7.55736 1.68932 7.20136 2.40065 6.4907C2.82732 6.06403 3.02465 5.64136 3.02465 5.03336C3.02465 4.50603 2.92198 3.75336 3.33398 3.33803C3.74865 2.92003 4.50465 3.0227 5.03532 3.0227C5.64332 3.0227 6.06598 2.8247 6.49265 2.39803C7.20332 1.68736 7.55932 1.33203 8.00065 1.33203C8.44198 1.33203 8.79798 1.68736 9.50865 2.3987C9.93532 2.82536 10.358 3.0227 10.966 3.0227C11.4933 3.0227 12.246 2.92003 12.6613 3.33203C13.0793 3.7467 12.9767 4.5027 12.9767 5.03336C12.9767 5.7047 13.1233 6.01336 13.6013 6.4907C14.312 7.20136 14.6673 7.55736 14.6673 7.9987C14.6673 8.44003 14.312 8.79603 13.6007 9.5067C13.1233 9.9847 12.9767 10.2934 12.9767 10.964C12.9767 11.4947 13.0787 12.2507 12.6607 12.6654Z" fill="#40B869"/>
<path d="M6.00065 8.59403L7.20065 9.66537L10.0007 6.33203" fill="#40B869"/>
<path d="M12.6607 12.6654H12.6673M12.6607 12.6654C12.246 13.0767 11.494 12.9747 10.966 12.9747C10.318 12.9747 10.006 13.1014 9.54398 13.5634C9.15065 13.9567 8.62332 14.6654 8.00065 14.6654C7.37798 14.6654 6.85065 13.9567 6.45732 13.5634C5.99465 13.1014 5.68265 12.9747 5.03532 12.9747C4.50798 12.9747 3.75532 13.0774 3.33998 12.6654C2.92198 12.2507 3.02465 11.4947 3.02465 10.964C3.02465 10.2927 2.87798 9.98403 2.39998 9.5067C1.68932 8.79603 1.33398 8.44003 1.33398 7.9987C1.33398 7.55736 1.68932 7.20136 2.40065 6.4907C2.82732 6.06403 3.02465 5.64136 3.02465 5.03336C3.02465 4.50603 2.92198 3.75336 3.33398 3.33803C3.74865 2.92003 4.50465 3.0227 5.03532 3.0227C5.64332 3.0227 6.06598 2.8247 6.49265 2.39803C7.20332 1.68736 7.55932 1.33203 8.00065 1.33203C8.44198 1.33203 8.79798 1.68736 9.50865 2.3987C9.93532 2.82536 10.358 3.0227 10.966 3.0227C11.4933 3.0227 12.246 2.92003 12.6613 3.33203C13.0793 3.7467 12.9767 4.5027 12.9767 5.03336C12.9767 5.7047 13.1233 6.01336 13.6013 6.4907C14.312 7.20136 14.6673 7.55736 14.6673 7.9987C14.6673 8.44003 14.312 8.79603 13.6007 9.5067C13.1233 9.9847 12.9767 10.2934 12.9767 10.964C12.9767 11.4947 13.0787 12.2507 12.6607 12.6654ZM6.00065 8.59403L7.20065 9.66536L10.0007 6.33203" stroke="white" stroke-width="0.75" stroke-linecap="round" stroke-linejoin="round"/>
</svg>
